# xmcd
#
# Track frame offsets: 
#        150
#        10382
#        25832
#        39877
#        57102
#        74850
#        88602
#        103482
#        117120
#        130285
#        148150
#
# Disc length: 2250 seconds
#
# Revision: 1
# Processed by: cddbd v1.5.2PL0 Copyright (c) Steve Scherf et al.
# Submitted via: ExactAudioCopyFreeDBPlugin 1.0
#
DISCID=9e08c80b
DTITLE=Robin and Linda Williams - Turn Towards Tomorrow
DYEAR=1993
DGENRE=Country
TTITLE0=On and On
TTITLE1=The Other Side Of Town
TTITLE2=On The Day The Last Tear Falls
TTITLE3=Seventeen Years Old
TTITLE4=Chain Of Pain
TTITLE5=Famous In Missouri
TTITLE6=If I Didn't Have You
TTITLE7=The Country Of The Night
TTITLE8=I See No Future (In Looking In The Past)
TTITLE9=A Tender Heart and Calloused Hands
TTITLE10=Lying In The Moon
EXTD=
EXTT0=
EXTT1=
EXTT2=
EXTT3=
EXTT4=
EXTT5=
EXTT6=
EXTT7=
EXTT8=
EXTT9=
EXTT10=
PLAYORDER=
